<svg width="65" height="14" viewBox="0 0 65 14" fill="none" xmlns="http://www.w3.org/2000/svg">
<path d="M10.4746 13.4404H9.16895V11H2.02539V13.4473H0.712891L0.706055 9.92676H1.51953C1.94792 9.44368 2.28743 8.79655 2.53809 7.98535C2.79329 7.1696 2.9528 6.27637 3.0166 5.30566L3.23535 1.04688H9.18945V9.92676H10.4883L10.4746 13.4404ZM3.0166 9.92676H7.87012V2.12695H4.5L4.35645 5.05273C4.2972 6.19661 4.14453 7.17188 3.89844 7.97852C3.6569 8.78516 3.36296 9.43457 3.0166 9.92676ZM11.5137 7.2334C11.5137 6.50879 11.6549 5.8571 11.9375 5.27832C12.2246 4.69954 12.6211 4.25293 13.127 3.93848C13.6374 3.62402 14.2184 3.4668 14.8701 3.4668C15.8773 3.4668 16.6908 3.81543 17.3105 4.5127C17.9349 5.20996 18.2471 6.13737 18.2471 7.29492V7.38379C18.2471 8.10384 18.1081 8.75098 17.8301 9.3252C17.5566 9.89486 17.1624 10.3392 16.6475 10.6582C16.137 10.9772 15.5492 11.1367 14.8838 11.1367C13.8812 11.1367 13.0677 10.7881 12.4434 10.0908C11.8236 9.39355 11.5137 8.4707 11.5137 7.32227V7.2334ZM12.7852 7.38379C12.7852 8.2041 12.9743 8.86263 13.3525 9.35938C13.7354 9.85612 14.2458 10.1045 14.8838 10.1045C15.5264 10.1045 16.0368 9.85384 16.415 9.35254C16.7933 8.84668 16.9824 8.1403 16.9824 7.2334C16.9824 6.4222 16.7887 5.76595 16.4014 5.26465C16.0186 4.75879 15.5081 4.50586 14.8701 4.50586C14.2458 4.50586 13.7422 4.75423 13.3594 5.25098C12.9766 5.74772 12.7852 6.45866 12.7852 7.38379ZM23.0801 4.02734C24.0098 4.02734 24.7526 4.33952 25.3086 4.96387C25.8691 5.58366 26.1494 6.40169 26.1494 7.41797V7.53418C26.1494 8.23145 26.015 8.85579 25.7461 9.40723C25.4772 9.9541 25.0898 10.3802 24.584 10.6855C24.0827 10.9863 23.5039 11.1367 22.8477 11.1367C21.8542 11.1367 21.0544 10.8063 20.4482 10.1455C19.8421 9.48014 19.5391 8.58919 19.5391 7.47266V6.85742C19.5391 5.30339 19.8262 4.06836 20.4004 3.15234C20.9792 2.23633 21.8314 1.67806 22.957 1.47754C23.5951 1.36361 24.0257 1.22461 24.249 1.06055C24.4723 0.896484 24.584 0.670898 24.584 0.383789H25.623C25.623 0.953451 25.4932 1.39779 25.2334 1.7168C24.9782 2.03581 24.568 2.26139 24.0029 2.39355L23.0596 2.60547C22.3076 2.7832 21.7425 3.08398 21.3643 3.50781C20.9906 3.92708 20.7467 4.48763 20.6328 5.18945C21.3027 4.41471 22.1185 4.02734 23.0801 4.02734ZM22.834 5.06641C22.2142 5.06641 21.722 5.27604 21.3574 5.69531C20.9928 6.11003 20.8105 6.68652 20.8105 7.4248V7.53418C20.8105 8.32715 20.9928 8.95605 21.3574 9.4209C21.7266 9.88118 22.2233 10.1113 22.8477 10.1113C23.4766 10.1113 23.9733 9.87891 24.3379 9.41406C24.7025 8.94922 24.8848 8.27018 24.8848 7.37695C24.8848 6.67969 24.7002 6.12142 24.3311 5.70215C23.9665 5.27832 23.4674 5.06641 22.834 5.06641ZM32.1377 11C32.0648 10.8542 32.0055 10.5944 31.96 10.2207C31.3721 10.8314 30.6702 11.1367 29.8545 11.1367C29.1253 11.1367 28.526 10.9316 28.0566 10.5215C27.5918 10.1068 27.3594 9.58268 27.3594 8.94922C27.3594 8.17904 27.651 7.58203 28.2344 7.1582C28.8223 6.72982 29.6471 6.51562 30.709 6.51562H31.9395V5.93457C31.9395 5.49251 31.8073 5.1416 31.543 4.88184C31.2786 4.61751 30.889 4.48535 30.374 4.48535C29.9229 4.48535 29.5446 4.59928 29.2393 4.82715C28.9339 5.05501 28.7812 5.33073 28.7812 5.6543H27.5098C27.5098 5.28516 27.6396 4.92969 27.8994 4.58789C28.1637 4.24154 28.5192 3.9681 28.9658 3.76758C29.417 3.56706 29.9115 3.4668 30.4492 3.4668C31.3014 3.4668 31.9691 3.68099 32.4521 4.10938C32.9352 4.5332 33.1859 5.11882 33.2041 5.86621V9.27051C33.2041 9.94954 33.2907 10.4896 33.4639 10.8906V11H32.1377ZM30.0391 10.0361C30.4355 10.0361 30.8115 9.93359 31.167 9.72852C31.5225 9.52344 31.7799 9.25684 31.9395 8.92871V7.41113H30.9482C29.3988 7.41113 28.624 7.86458 28.624 8.77148C28.624 9.16797 28.7562 9.47786 29.0205 9.70117C29.2848 9.92448 29.6243 10.0361 30.0391 10.0361ZM35.3027 11V3.60352H38.1875C39.1719 3.60352 39.9261 3.77669 40.4502 4.12305C40.9788 4.46484 41.2432 4.96842 41.2432 5.63379C41.2432 5.97559 41.1406 6.28548 40.9355 6.56348C40.7305 6.83691 40.4274 7.04655 40.0264 7.19238C40.473 7.2972 40.8307 7.50228 41.0996 7.80762C41.373 8.11296 41.5098 8.47754 41.5098 8.90137C41.5098 9.5804 41.2591 10.0999 40.7578 10.46C40.2611 10.82 39.557 11 38.6455 11H35.3027ZM36.5674 7.75293V9.98145H38.6592C39.1878 9.98145 39.582 9.88346 39.8418 9.6875C40.1061 9.49154 40.2383 9.21582 40.2383 8.86035C40.2383 8.12207 39.696 7.75293 38.6113 7.75293H36.5674ZM36.5674 6.74121H38.2012C39.3861 6.74121 39.9785 6.39486 39.9785 5.70215C39.9785 5.00944 39.418 4.65169 38.2969 4.62891H36.5674V6.74121ZM47.9697 3.60352H49.2344V11H47.9697V5.60645L44.5586 11H43.2939V3.60352H44.5586V9.00391L47.9697 3.60352ZM56.7607 4.62891H54.2793V11H53.0146V4.62891H50.5811V3.60352H56.7607V4.62891ZM59.3721 6.15332H61.293C62.1315 6.16243 62.7946 6.38118 63.2822 6.80957C63.7699 7.23796 64.0137 7.81901 64.0137 8.55273C64.0137 9.29102 63.763 9.88346 63.2617 10.3301C62.7604 10.7767 62.0859 11 61.2383 11H58.1074V3.60352H59.3721V6.15332ZM59.3721 7.18555V9.96777H61.252C61.7259 9.96777 62.0928 9.84701 62.3525 9.60547C62.6123 9.35938 62.7422 9.02441 62.7422 8.60059C62.7422 8.19043 62.6146 7.85547 62.3594 7.5957C62.1087 7.33138 61.7555 7.19466 61.2998 7.18555H59.3721Z" fill="white"/>
</svg>
